<svg width="356" height="506" viewBox="0 0 356 506" fill="none" xmlns="http://www.w3.org/2000/svg">
<path d="M178 2C80.8438 2.11109 2.11105 80.8704 2 178.059C2 272.435 164.448 484.402 171.362 493.373L178 502L184.638 493.373C191.552 484.402 354 272.435 354 178.059C353.889 80.8704 275.156 2.11109 178 2Z" fill="url(#paint0_linear)"/>
<path fill-rule="evenodd" clip-rule="evenodd" d="M177.998 1.3113e-06L178.002 -3.8147e-06C276.262 0.112348 355.888 79.7659 356 178.057V178.059C356 202.113 345.683 233.391 330.326 266.718C314.938 300.111 294.366 335.816 273.604 368.808C232.079 434.797 189.694 490.089 186.222 494.594L178 505.28L169.778 494.594C166.306 490.089 123.921 434.797 82.3956 368.808C61.6341 335.816 41.0623 300.111 25.6741 266.718C10.3169 233.391 0 202.113 0 178.059V178.057C0.112308 79.7659 79.7381 0.112348 177.998 1.3113e-06ZM171.362 493.373L178 502L184.638 493.373C191.552 484.402 354 272.435 354 178.059C353.889 80.8704 275.156 2.11109 178 2C80.8438 2.11109 2.11105 80.8704 2 178.059C2 272.435 164.448 484.402 171.362 493.373Z" fill="white"/>
<path d="M98.8332 196.667V171.667C101.133 171.667 103 169.8 103 167.5C103 165.2 101.133 163.333 98.8332 163.333C87.3418 163.333 78 172.683 78 184.167V192.5C78 199.392 83.6082 205 90.5 205H98.8332C101.133 205 103 203.133 103 200.833C103 198.533 101.133 196.667 98.8332 196.667Z" fill="#140A5A"/>
<path d="M257.167 163.333C254.867 163.333 253 165.2 253 167.5C253 169.8 254.867 171.667 257.167 171.667V196.667C254.867 196.667 253 198.534 253 200.834C253 203.134 254.867 205 257.167 205H265.5C272.392 205 278 199.392 278 192.5V184.167C278 172.683 268.658 163.333 257.167 163.333Z" fill="#140A5A"/>
<path d="M148.833 280C146.533 280 144.666 281.867 144.666 284.167H119.666C119.666 281.867 117.8 280 115.5 280C113.2 280 111.333 281.867 111.333 284.167V292.5C111.333 299.392 116.941 305 123.833 305H140.5C147.392 305 153 299.392 153 292.5V284.167C153 281.867 151.133 280 148.833 280Z" fill="#140A5A"/>
<path d="M240.5 280C238.2 280 236.333 281.867 236.333 284.167H211.333C211.333 281.867 209.466 280 207.166 280C204.866 280 203 281.867 203 284.167V292.5C203 299.392 208.608 305 215.5 305H232.167C239.059 305 244.667 299.392 244.667 292.5V284.167C244.667 281.867 242.8 280 240.5 280Z" fill="#140A5A"/>
<path d="M240.5 105H115.5C104.008 105 94.6668 114.35 94.6668 125.833V267.5C94.6668 278.983 104.009 288.333 115.5 288.333H240.5C251.992 288.333 261.333 278.983 261.333 267.5V125.833C261.333 114.35 251.992 105 240.5 105ZM132.167 121.667H223.834C230.725 121.667 236.334 127.275 236.334 134.167C236.334 141.059 230.725 146.667 223.834 146.667H132.167C125.275 146.667 119.667 141.059 119.667 134.167C119.667 127.275 125.275 121.667 132.167 121.667ZM132.167 263.333C125.275 263.333 119.667 257.725 119.667 250.833C119.667 243.941 125.275 238.333 132.167 238.333C139.059 238.333 144.667 243.941 144.667 250.833C144.667 257.725 139.058 263.333 132.167 263.333ZM223.833 263.333C216.941 263.333 211.333 257.725 211.333 250.833C211.333 243.941 216.941 238.333 223.833 238.333C230.725 238.333 236.333 243.941 236.333 250.833C236.333 257.725 230.725 263.333 223.833 263.333ZM244.667 209.167C244.667 216.059 239.059 221.667 232.167 221.667H123.833C116.941 221.667 111.333 216.059 111.333 209.167V167.5C111.333 160.608 116.941 155 123.833 155H232.166C239.058 155 244.666 160.608 244.666 167.5V209.167H244.667Z" fill="#140A5A"/>
<defs>
<linearGradient id="paint0_linear" x1="2.35205" y1="502.281" x2="473.024" y2="171.006" gradientUnits="userSpaceOnUse">
<stop stop-color="#FFBEC8"/>
<stop offset="1" stop-color="#B4CDFF"/>
</linearGradient>
</defs>
</svg>
