<svg width="356" height="506" viewBox="0 0 356 506" fill="none" xmlns="http://www.w3.org/2000/svg">
<path d="M178 2C80.8438 2.11109 2.11105 80.8704 2 178.059C2 272.435 164.448 484.402 171.362 493.373L178 502L184.638 493.373C191.552 484.402 354 272.435 354 178.059C353.889 80.8704 275.156 2.11109 178 2Z" fill="url(#paint0_linear)"/>
<path fill-rule="evenodd" clip-rule="evenodd" d="M177.998 1.3113e-06L178.002 -3.8147e-06C276.262 0.112348 355.888 79.7659 356 178.057V178.059C356 202.113 345.683 233.391 330.326 266.718C314.938 300.111 294.366 335.816 273.604 368.808C232.079 434.797 189.694 490.089 186.222 494.594L178 505.28L169.778 494.594C166.306 490.089 123.921 434.797 82.3956 368.808C61.6341 335.816 41.0623 300.111 25.6741 266.718C10.3169 233.391 0 202.113 0 178.059V178.057C0.112308 79.7659 79.7381 0.112348 177.998 1.3113e-06ZM171.362 493.373L178 502L184.638 493.373C191.552 484.402 354 272.435 354 178.059C353.889 80.8704 275.156 2.11109 178 2C80.8438 2.11109 2.11105 80.8704 2 178.059C2 272.435 164.448 484.402 171.362 493.373Z" fill="white"/>
<path d="M99.73 278.954C99.73 278.954 99.5292 284 104.464 284C110.603 284 161.432 283.933 161.432 283.933L161.516 237.308C161.516 237.308 160.713 229.622 168.182 229.622H191.82C200.652 229.622 200.108 237.308 200.108 237.308L200.008 283.783C200.008 283.783 248.202 283.783 255.772 283.783C262.037 283.783 261.752 277.5 261.752 277.5V191.544L183.163 121.719L99.73 191.544V278.954Z" fill="#140A5A"/>
<path d="M69 185.044C69 185.044 76.0845 198.085 91.5331 185.044L183.857 107.033L270.418 184.56C288.3 197.442 295 184.56 295 184.56L183.857 84L69 185.044Z" fill="#140A5A"/>
<path d="M268.318 106.849H246.053L246.145 133.816L268.318 152.605V106.849Z" fill="#140A5A"/>
<defs>
<linearGradient id="paint0_linear" x1="2.35205" y1="502.281" x2="473.024" y2="171.006" gradientUnits="userSpaceOnUse">
<stop stop-color="#FFBEC8"/>
<stop offset="1" stop-color="#B4CDFF"/>
</linearGradient>
</defs>
</svg>
